<mxfile host="Electron" modified="2024-06-19T06:06:06.208Z" agent="Mozilla/5.0 (Windows NT 10.0; Win64; x64) AppleWebKit/537.36 (KHTML, like Gecko) draw.io/24.5.3 Chrome/124.0.6367.207 Electron/30.0.6 Safari/537.36" etag="L6UD9GfIkP06-9I9GL5C" version="24.5.3" type="device">
  <diagram name="Page-1" id="XOgep7xN6cvRrsEyFYAU">
    <mxGraphModel dx="2607" dy="1553" grid="1" gridSize="10" guides="1" tooltips="1" connect="1" arrows="1" fold="1" page="1" pageScale="1" pageWidth="2400" pageHeight="1200" math="0" shadow="0">
      <root>
        <mxCell id="0" />
        <mxCell id="1" parent="0" />
        <mxCell id="3FQ_g1fwvyoOvscGBFJc-19" value="" style="rounded=1;whiteSpace=wrap;html=1;fillColor=#fad9d5;strokeColor=#ae4132;" vertex="1" parent="1">
          <mxGeometry x="1460" y="900" width="1450" height="410" as="geometry" />
        </mxCell>
        <mxCell id="3FQ_g1fwvyoOvscGBFJc-11" value="" style="rounded=1;whiteSpace=wrap;html=1;fillColor=#dae8fc;strokeColor=#6c8ebf;" vertex="1" parent="1">
          <mxGeometry x="1220" y="70" width="2320" height="790" as="geometry" />
        </mxCell>
        <mxCell id="MKBLukAdihqXzBTZwlin-24" style="edgeStyle=orthogonalEdgeStyle;rounded=0;orthogonalLoop=1;jettySize=auto;html=1;startArrow=none;startFill=0;endArrow=none;endFill=0;" parent="1" source="MKBLukAdihqXzBTZwlin-8" edge="1">
          <mxGeometry relative="1" as="geometry">
            <mxPoint x="1560" y="520" as="targetPoint" />
          </mxGeometry>
        </mxCell>
        <mxCell id="MKBLukAdihqXzBTZwlin-36" style="edgeStyle=orthogonalEdgeStyle;rounded=0;orthogonalLoop=1;jettySize=auto;html=1;exitX=0.5;exitY=0;exitDx=0;exitDy=0;endArrow=none;endFill=0;" parent="1" source="MKBLukAdihqXzBTZwlin-8" edge="1">
          <mxGeometry relative="1" as="geometry">
            <mxPoint x="2050" y="330" as="targetPoint" />
            <Array as="points">
              <mxPoint x="1560" y="330" />
            </Array>
          </mxGeometry>
        </mxCell>
        <mxCell id="MKBLukAdihqXzBTZwlin-8" value="&lt;font style=&quot;font-size: 14px;&quot;&gt;Client&lt;/font&gt;" style="swimlane;whiteSpace=wrap;html=1;startSize=23;" parent="1" vertex="1">
          <mxGeometry x="1310" y="390" width="500" height="70" as="geometry" />
        </mxCell>
        <mxCell id="lL-_zeEpvykL3q5tdtBC-5" value="+Client(firstName: String, lastName: String, email: String, password: String, birthYear: String)&lt;div&gt;+isValid(): boolean&lt;/div&gt;&lt;div&gt;+getBirthYear(): Object&lt;/div&gt;" style="rounded=0;whiteSpace=wrap;html=1;align=left;" parent="MKBLukAdihqXzBTZwlin-8" vertex="1">
          <mxGeometry y="23" width="500" height="47" as="geometry" />
        </mxCell>
        <mxCell id="MKBLukAdihqXzBTZwlin-23" style="edgeStyle=orthogonalEdgeStyle;rounded=0;orthogonalLoop=1;jettySize=auto;html=1;startArrow=none;startFill=0;endArrow=none;endFill=0;" parent="1" source="MKBLukAdihqXzBTZwlin-9" edge="1">
          <mxGeometry relative="1" as="geometry">
            <mxPoint x="2185" y="520" as="targetPoint" />
          </mxGeometry>
        </mxCell>
        <mxCell id="MKBLukAdihqXzBTZwlin-9" value="&lt;font style=&quot;font-size: 14px;&quot;&gt;Landlord&lt;/font&gt;" style="swimlane;whiteSpace=wrap;html=1;startSize=23;" parent="1" vertex="1">
          <mxGeometry x="1930" y="390" width="510" height="70" as="geometry" />
        </mxCell>
        <mxCell id="lL-_zeEpvykL3q5tdtBC-6" value="+Landlord(firstName: String, lastName: String, email: String, password: String, address: String)&lt;div&gt;+isValid(): boolean&lt;/div&gt;&lt;div&gt;+getAddress(): Object&lt;/div&gt;" style="rounded=0;whiteSpace=wrap;html=1;align=left;" parent="MKBLukAdihqXzBTZwlin-9" vertex="1">
          <mxGeometry y="23" width="510" height="47" as="geometry" />
        </mxCell>
        <mxCell id="MKBLukAdihqXzBTZwlin-37" style="edgeStyle=orthogonalEdgeStyle;rounded=0;orthogonalLoop=1;jettySize=auto;html=1;endArrow=none;endFill=0;exitX=0.5;exitY=0;exitDx=0;exitDy=0;" parent="1" source="MKBLukAdihqXzBTZwlin-10" edge="1">
          <mxGeometry relative="1" as="geometry">
            <mxPoint x="2050" y="330" as="targetPoint" />
            <Array as="points">
              <mxPoint x="3280" y="330" />
              <mxPoint x="2050" y="330" />
            </Array>
          </mxGeometry>
        </mxCell>
        <mxCell id="3FQ_g1fwvyoOvscGBFJc-56" style="edgeStyle=orthogonalEdgeStyle;rounded=0;orthogonalLoop=1;jettySize=auto;html=1;entryX=1;entryY=0.5;entryDx=0;entryDy=0;endArrow=none;endFill=0;startArrow=open;startFill=0;dashed=1;" edge="1" parent="1" source="MKBLukAdihqXzBTZwlin-10" target="3FQ_g1fwvyoOvscGBFJc-47">
          <mxGeometry relative="1" as="geometry" />
        </mxCell>
        <mxCell id="MKBLukAdihqXzBTZwlin-10" value="&lt;font style=&quot;font-size: 14px;&quot;&gt;PropertyMgr&lt;/font&gt;" style="swimlane;whiteSpace=wrap;html=1;startSize=23;" parent="1" vertex="1">
          <mxGeometry x="3060" y="360" width="440" height="130" as="geometry" />
        </mxCell>
        <mxCell id="3FQ_g1fwvyoOvscGBFJc-15" value="+PropertyMgr(firstName: String, lastName: String, email: String, password: String)&lt;div&gt;+isValid(): boolean&lt;/div&gt;&lt;div&gt;+getInvitations(): List&amp;lt;String&amp;gt;&lt;/div&gt;&lt;div&gt;+addInvitation(propertyId: String): void&lt;/div&gt;&lt;div&gt;+removeInvitation(propertyId: String): void&lt;/div&gt;&lt;div&gt;+clearInvitations(): void&lt;/div&gt;" style="rounded=0;whiteSpace=wrap;html=1;align=left;" vertex="1" parent="MKBLukAdihqXzBTZwlin-10">
          <mxGeometry y="40" width="440" height="90" as="geometry" />
        </mxCell>
        <mxCell id="MKBLukAdihqXzBTZwlin-30" value="0..*" style="text;html=1;align=center;verticalAlign=middle;resizable=0;points=[];autosize=1;strokeColor=none;fillColor=none;" parent="1" vertex="1">
          <mxGeometry x="1560" y="460" width="40" height="30" as="geometry" />
        </mxCell>
        <mxCell id="MKBLukAdihqXzBTZwlin-31" value="0..*" style="text;html=1;align=center;verticalAlign=middle;resizable=0;points=[];autosize=1;strokeColor=none;fillColor=none;" parent="1" vertex="1">
          <mxGeometry x="2185" y="470" width="40" height="30" as="geometry" />
        </mxCell>
        <mxCell id="MKBLukAdihqXzBTZwlin-32" value="0..*" style="text;html=1;align=center;verticalAlign=middle;resizable=0;points=[];autosize=1;strokeColor=none;fillColor=none;" parent="1" vertex="1">
          <mxGeometry x="3280" y="490" width="40" height="30" as="geometry" />
        </mxCell>
        <mxCell id="_sGQmXk6p929G_CMf_oQ-1" value="&lt;span style=&quot;font-size: 14px;&quot;&gt;Property&lt;/span&gt;" style="swimlane;whiteSpace=wrap;html=1;startSize=23;" parent="1" vertex="1">
          <mxGeometry x="1505" y="990" width="1360" height="285" as="geometry" />
        </mxCell>
        <mxCell id="_sGQmXk6p929G_CMf_oQ-2" value="#propertyData: Map&amp;lt;String, Object&amp;gt;" style="rounded=0;whiteSpace=wrap;html=1;align=left;" parent="_sGQmXk6p929G_CMf_oQ-1" vertex="1">
          <mxGeometry y="23" width="1360" height="17" as="geometry" />
        </mxCell>
        <mxCell id="_sGQmXk6p929G_CMf_oQ-3" value="+Property(address: String, type: String, floor: String, numRoom: String, numBathroom: String, numFloor: String, area: String, laundry: Boolean, numParkingSpot: String, rent: String, utilities: String, landlord: String, manager: String)&lt;div&gt;+Property(address: String, type: String, floor: String, numRoom: String, numBathroom: String, numFloor: String, area: String, laundry: Boolean, numParkingSpot: String, rent: String, utilities: String, landlord: String, manager: String, client: String)&lt;/div&gt;&lt;div&gt;+isValid(): boolean&lt;/div&gt;&lt;div&gt;+getAddress(): String&lt;/div&gt;&lt;div&gt;+getType(): String&lt;br&gt;&lt;/div&gt;&lt;div&gt;+getFloor(): String&lt;br&gt;&lt;/div&gt;&lt;div&gt;+getNumRoom(): String&lt;br&gt;&lt;/div&gt;&lt;div&gt;+getNumBathroom(): String&lt;br&gt;&lt;/div&gt;&lt;div&gt;+getNumFloor(): String&lt;br&gt;&lt;/div&gt;&lt;div&gt;+getArea(): String&lt;br&gt;&lt;/div&gt;&lt;div&gt;+getLaundry(): Boolean&lt;br&gt;&lt;/div&gt;&lt;div&gt;+getNumParkingSpot(): String&lt;br&gt;&lt;/div&gt;&lt;div&gt;+getRent(): String&lt;br&gt;&lt;/div&gt;&lt;div&gt;+getUtilities(): String&lt;br&gt;&lt;/div&gt;&lt;div&gt;+getLandlord(): String&lt;br&gt;&lt;/div&gt;&lt;div&gt;+getManager(): String&lt;br&gt;&lt;/div&gt;&lt;div&gt;+getClient(): String&lt;br&gt;&lt;/div&gt;" style="rounded=0;whiteSpace=wrap;html=1;align=left;" parent="_sGQmXk6p929G_CMf_oQ-1" vertex="1">
          <mxGeometry y="40" width="1360" height="250" as="geometry" />
        </mxCell>
        <mxCell id="3FQ_g1fwvyoOvscGBFJc-13" value="&lt;b style=&quot;&quot;&gt;&lt;font style=&quot;font-size: 32px;&quot;&gt;Users&lt;/font&gt;&lt;/b&gt;" style="text;html=1;align=center;verticalAlign=middle;whiteSpace=wrap;rounded=0;" vertex="1" parent="1">
          <mxGeometry x="1270" y="100" width="140" height="80" as="geometry" />
        </mxCell>
        <mxCell id="3FQ_g1fwvyoOvscGBFJc-16" value="-invitations: ArrayList&amp;lt;String&amp;gt;" style="rounded=0;whiteSpace=wrap;html=1;align=left;" vertex="1" parent="1">
          <mxGeometry x="3060" y="380" width="440" height="20" as="geometry" />
        </mxCell>
        <mxCell id="3FQ_g1fwvyoOvscGBFJc-18" value="&lt;b style=&quot;&quot;&gt;&lt;font style=&quot;font-size: 32px;&quot;&gt;Properties&lt;/font&gt;&lt;/b&gt;" style="text;html=1;align=center;verticalAlign=middle;whiteSpace=wrap;rounded=0;" vertex="1" parent="1">
          <mxGeometry x="1480" y="910" width="202.5" height="80" as="geometry" />
        </mxCell>
        <mxCell id="3FQ_g1fwvyoOvscGBFJc-35" value="&lt;i&gt;User&lt;/i&gt;" style="swimlane;fontStyle=1;align=center;verticalAlign=top;childLayout=stackLayout;horizontal=1;startSize=26;horizontalStack=0;resizeParent=1;resizeParentMax=0;resizeLast=0;collapsible=1;marginBottom=0;whiteSpace=wrap;html=1;fillStyle=auto;gradientColor=none;" vertex="1" parent="1">
          <mxGeometry x="1980" y="100" width="410" height="193" as="geometry" />
        </mxCell>
        <mxCell id="3FQ_g1fwvyoOvscGBFJc-36" value="#userData: Map&amp;lt;String, Object&amp;gt;" style="text;strokeColor=none;fillColor=default;align=left;verticalAlign=top;spacingLeft=4;spacingRight=4;overflow=hidden;rotatable=0;points=[[0,0.5],[1,0.5]];portConstraint=eastwest;whiteSpace=wrap;html=1;" vertex="1" parent="3FQ_g1fwvyoOvscGBFJc-35">
          <mxGeometry y="26" width="410" height="26" as="geometry" />
        </mxCell>
        <mxCell id="3FQ_g1fwvyoOvscGBFJc-37" value="" style="line;strokeWidth=1;align=left;verticalAlign=middle;spacingTop=-1;spacingLeft=3;spacingRight=3;rotatable=0;labelPosition=right;points=[];portConstraint=eastwest;" vertex="1" parent="3FQ_g1fwvyoOvscGBFJc-35">
          <mxGeometry y="52" width="410" height="1" as="geometry" />
        </mxCell>
        <mxCell id="3FQ_g1fwvyoOvscGBFJc-38" value="+User(firstName: String, lastName: String, email: String, password: String)&lt;div&gt;+User(firstName: String, lastName: String, email: String)&lt;i style=&quot;background-color: initial;&quot;&gt;&lt;br&gt;&lt;/i&gt;&lt;/div&gt;&lt;div&gt;&lt;i style=&quot;background-color: initial;&quot;&gt;+isValid(): boolean&lt;/i&gt;&lt;br&gt;&lt;/div&gt;&lt;div&gt;+getFirstName(): Object&lt;/div&gt;&lt;div&gt;+getLastName(): Object&lt;br&gt;&lt;/div&gt;&lt;div&gt;+getEmail(): Object&lt;/div&gt;&lt;div&gt;+getRole(): Object&lt;/div&gt;&lt;div&gt;+getProperties(): Object&lt;/div&gt;&lt;div&gt;#getPassword(): Object&lt;/div&gt;" style="text;strokeColor=none;fillColor=default;align=left;verticalAlign=top;spacingLeft=4;spacingRight=4;overflow=hidden;rotatable=0;points=[[0,0.5],[1,0.5]];portConstraint=eastwest;whiteSpace=wrap;html=1;" vertex="1" parent="3FQ_g1fwvyoOvscGBFJc-35">
          <mxGeometry y="53" width="410" height="140" as="geometry" />
        </mxCell>
        <mxCell id="3FQ_g1fwvyoOvscGBFJc-46" style="edgeStyle=orthogonalEdgeStyle;rounded=0;orthogonalLoop=1;jettySize=auto;html=1;entryX=0.501;entryY=0.996;entryDx=0;entryDy=0;entryPerimeter=0;" edge="1" parent="1" source="MKBLukAdihqXzBTZwlin-9" target="3FQ_g1fwvyoOvscGBFJc-38">
          <mxGeometry relative="1" as="geometry" />
        </mxCell>
        <mxCell id="3FQ_g1fwvyoOvscGBFJc-52" style="edgeStyle=orthogonalEdgeStyle;rounded=0;orthogonalLoop=1;jettySize=auto;html=1;entryX=1;entryY=0.25;entryDx=0;entryDy=0;endArrow=open;endFill=0;dashed=1;" edge="1" parent="1" source="3FQ_g1fwvyoOvscGBFJc-47" target="lL-_zeEpvykL3q5tdtBC-6">
          <mxGeometry relative="1" as="geometry" />
        </mxCell>
        <mxCell id="3FQ_g1fwvyoOvscGBFJc-47" value="InvitationHandler" style="swimlane;fontStyle=1;align=center;verticalAlign=top;childLayout=stackLayout;horizontal=1;startSize=26;horizontalStack=0;resizeParent=1;resizeParentMax=0;resizeLast=0;collapsible=1;marginBottom=0;whiteSpace=wrap;html=1;fillStyle=auto;gradientColor=none;" vertex="1" parent="1">
          <mxGeometry x="2520" y="370" width="450" height="110" as="geometry" />
        </mxCell>
        <mxCell id="3FQ_g1fwvyoOvscGBFJc-48" value="&lt;div&gt;-manager: PropertyMgr&lt;/div&gt;&lt;div&gt;-property: Property&lt;/div&gt;" style="text;strokeColor=none;fillColor=default;align=left;verticalAlign=top;spacingLeft=4;spacingRight=4;overflow=hidden;rotatable=0;points=[[0,0.5],[1,0.5]];portConstraint=eastwest;whiteSpace=wrap;html=1;" vertex="1" parent="3FQ_g1fwvyoOvscGBFJc-47">
          <mxGeometry y="26" width="450" height="44" as="geometry" />
        </mxCell>
        <mxCell id="3FQ_g1fwvyoOvscGBFJc-49" value="" style="line;strokeWidth=1;align=left;verticalAlign=middle;spacingTop=-1;spacingLeft=3;spacingRight=3;rotatable=0;labelPosition=right;points=[];portConstraint=eastwest;" vertex="1" parent="3FQ_g1fwvyoOvscGBFJc-47">
          <mxGeometry y="70" width="450" height="1" as="geometry" />
        </mxCell>
        <mxCell id="3FQ_g1fwvyoOvscGBFJc-50" value="+InvitationHandler(manager: PropertyMgr, landlord: Landlord, property: Property)&lt;div&gt;+sendInviteToManager(): void&lt;/div&gt;" style="text;strokeColor=none;fillColor=default;align=left;verticalAlign=top;spacingLeft=4;spacingRight=4;overflow=hidden;rotatable=0;points=[[0,0.5],[1,0.5]];portConstraint=eastwest;whiteSpace=wrap;html=1;" vertex="1" parent="3FQ_g1fwvyoOvscGBFJc-47">
          <mxGeometry y="71" width="450" height="39" as="geometry" />
        </mxCell>
        <mxCell id="3FQ_g1fwvyoOvscGBFJc-62" value="" style="group" vertex="1" connectable="0" parent="1">
          <mxGeometry x="1280" y="550" width="550" height="270" as="geometry" />
        </mxCell>
        <mxCell id="3FQ_g1fwvyoOvscGBFJc-58" value="" style="rounded=1;whiteSpace=wrap;html=1;fillColor=#ffe6cc;strokeColor=#d79b00;" vertex="1" parent="3FQ_g1fwvyoOvscGBFJc-62">
          <mxGeometry y="-10" width="550" height="280" as="geometry" />
        </mxCell>
        <mxCell id="MKBLukAdihqXzBTZwlin-6" value="&lt;font style=&quot;font-size: 14px;&quot;&gt;UserCreator&lt;/font&gt;" style="swimlane;whiteSpace=wrap;html=1;startSize=23;" parent="3FQ_g1fwvyoOvscGBFJc-62" vertex="1">
          <mxGeometry x="140" y="20" width="280" height="110" as="geometry" />
        </mxCell>
        <mxCell id="lL-_zeEpvykL3q5tdtBC-14" value="~context: Context&lt;div&gt;~firestore: FirebaseFirestore&lt;/div&gt;" style="rounded=0;whiteSpace=wrap;html=1;align=left;" parent="MKBLukAdihqXzBTZwlin-6" vertex="1">
          <mxGeometry y="22.5" width="280" height="38.5" as="geometry" />
        </mxCell>
        <mxCell id="lL-_zeEpvykL3q5tdtBC-15" value="+UserCreator(activeContext: Context): UserCreator&lt;div&gt;#add(user: User): boolean&lt;/div&gt;&lt;div&gt;+doesExist(email: String): boolean&lt;/div&gt;" style="rounded=0;whiteSpace=wrap;html=1;align=left;" parent="MKBLukAdihqXzBTZwlin-6" vertex="1">
          <mxGeometry y="61" width="280" height="49" as="geometry" />
        </mxCell>
        <mxCell id="_sGQmXk6p929G_CMf_oQ-4" value="&lt;font style=&quot;font-size: 14px;&quot;&gt;Hashing&lt;/font&gt;" style="swimlane;whiteSpace=wrap;html=1;startSize=23;" parent="3FQ_g1fwvyoOvscGBFJc-62" vertex="1">
          <mxGeometry x="45" y="150" width="470" height="100" as="geometry" />
        </mxCell>
        <mxCell id="_sGQmXk6p929G_CMf_oQ-5" value="~context: Context" style="rounded=0;whiteSpace=wrap;html=1;align=left;" parent="_sGQmXk6p929G_CMf_oQ-4" vertex="1">
          <mxGeometry y="23" width="470" height="20" as="geometry" />
        </mxCell>
        <mxCell id="_sGQmXk6p929G_CMf_oQ-6" value="&lt;div&gt;+Hashing(context: Context): Hashing&lt;/div&gt;+hashPassword(password: char[], salt: byte[]): SecretKey&lt;div&gt;&lt;div&gt;+generateSalt(): byte[]&lt;/div&gt;&lt;div&gt;+verifyPassword(salt: byte[], passwordPlainText: String, password: SecretKey): boolean&lt;/div&gt;&lt;/div&gt;" style="rounded=0;whiteSpace=wrap;html=1;align=left;" parent="_sGQmXk6p929G_CMf_oQ-4" vertex="1">
          <mxGeometry y="43" width="470" height="57" as="geometry" />
        </mxCell>
        <mxCell id="3FQ_g1fwvyoOvscGBFJc-59" value="&lt;span style=&quot;font-size: 16px;&quot;&gt;&lt;b&gt;User Factory and Helper&lt;/b&gt;&lt;/span&gt;" style="text;html=1;align=center;verticalAlign=middle;whiteSpace=wrap;rounded=0;" vertex="1" parent="3FQ_g1fwvyoOvscGBFJc-62">
          <mxGeometry x="20" y="47.5" width="100" height="55" as="geometry" />
        </mxCell>
        <mxCell id="3FQ_g1fwvyoOvscGBFJc-64" value="creates" style="text;html=1;align=center;verticalAlign=middle;resizable=0;points=[];autosize=1;strokeColor=none;fillColor=none;" vertex="1" parent="3FQ_g1fwvyoOvscGBFJc-62">
          <mxGeometry x="280" y="-10" width="60" height="30" as="geometry" />
        </mxCell>
        <mxCell id="3FQ_g1fwvyoOvscGBFJc-63" style="edgeStyle=orthogonalEdgeStyle;rounded=0;orthogonalLoop=1;jettySize=auto;html=1;entryX=0.5;entryY=1;entryDx=0;entryDy=0;endArrow=none;endFill=0;exitX=0.5;exitY=0;exitDx=0;exitDy=0;" edge="1" parent="1" source="MKBLukAdihqXzBTZwlin-6">
          <mxGeometry relative="1" as="geometry">
            <mxPoint x="1160" y="520" as="sourcePoint" />
            <mxPoint x="3279.95" y="490" as="targetPoint" />
            <Array as="points">
              <mxPoint x="1560" y="550" />
              <mxPoint x="1560" y="520" />
              <mxPoint x="3280" y="520" />
            </Array>
          </mxGeometry>
        </mxCell>
        <mxCell id="3FQ_g1fwvyoOvscGBFJc-57" style="edgeStyle=orthogonalEdgeStyle;rounded=0;orthogonalLoop=1;jettySize=auto;html=1;entryX=0.912;entryY=-0.001;entryDx=0;entryDy=0;entryPerimeter=0;jumpStyle=arc;dashed=1;jumpSize=23;" edge="1" parent="1" source="3FQ_g1fwvyoOvscGBFJc-47" target="_sGQmXk6p929G_CMf_oQ-1">
          <mxGeometry relative="1" as="geometry" />
        </mxCell>
      </root>
    </mxGraphModel>
  </diagram>
</mxfile>
